<svg xmlns="http://www.w3.org/2000/svg" viewBox="0 0 24 24"><defs><style>.a{fill:#fff;}</style></defs><path class="a" d="M17,9H9V7a3,3,0,0,1,5.9-.75,1,1,0,1,0,1.94-.5,5.08,5.08,0,0,0-1.31-2.29A5,5,0,0,0,7,7V9a3,3,0,0,0-3,3v7a3,3,0,0,0,3,3H17a3,3,0,0,0,3-3V12A3,3,0,0,0,17,9Zm1,10a1,1,0,0,1-1,1H7a1,1,0,0,1-1-1V12a1,1,0,0,1,1-1H17a1,1,0,0,1,1,1Z"/><path class="a" d="M17,11H7a1,1,0,0,0-1,1v7a1,1,0,0,0,1,1H17a1,1,0,0,0,1-1V12A1,1,0,0,0,17,11Zm-4,4.61V17a1,1,0,0,1-2,0V15.61a1.5,1.5,0,1,1,2,0Z"/></svg>